<?xml version="1.0" encoding="UTF-8"?>
<!DOCTYPE svg PUBLIC "-//W3C//DTD SVG 1.1//EN" "http://www.w3.org/Graphics/SVG/1.1/DTD/svg11.dtd">
<svg xmlns="http://www.w3.org/2000/svg" version="1.1" width="512px" height="512px" style="shape-rendering:geometricPrecision; text-rendering:geometricPrecision; image-rendering:optimizeQuality; fill-rule:evenodd; clip-rule:evenodd" xmlns:xlink="http://www.w3.org/1999/xlink">
<g><path style="opacity:0.997" fill="#cc382d" d="M 255.5,4.5 C 255.5,32.8333 255.5,61.1667 255.5,89.5C 267.012,89.1719 278.346,89.5052 289.5,90.5C 278.167,90.5 266.833,90.5 255.5,90.5C 242.829,90.3334 230.162,90.5001 217.5,91C 213.281,93.552 210.114,97.052 208,101.5C 207.5,122.497 207.333,143.497 207.5,164.5C 186.831,164.333 166.164,164.5 145.5,165C 139.333,167.167 135.167,171.333 133,177.5C 132.333,200.833 132.333,224.167 133,247.5C 134.336,253.501 137.836,257.668 143.5,260C 164.831,260.5 186.164,260.667 207.5,260.5C 207.333,281.503 207.5,302.503 208,323.5C 209.743,328.91 213.243,332.744 218.5,335C 230.829,335.5 243.162,335.667 255.5,335.5C 255.5,392.167 255.5,448.833 255.5,505.5C 257.167,505.5 258.833,505.5 260.5,505.5C 254.916,507.235 249.583,506.401 244.5,503C 194.261,457.112 148.761,407.279 108,353.5C 89.5105,328.634 73.8438,301.967 61,273.5C 44.7803,233.511 43.1136,192.844 56,151.5C 83.7114,71.8934 138.878,23.7268 221.5,7C 232.773,5.30596 244.106,4.47262 255.5,4.5 Z"/></g>
<g><path style="opacity:1" fill="#f34336" d="M 255.5,4.5 C 335.188,6.90985 395.688,41.9098 437,109.5C 472.149,173.283 472.149,236.95 437,300.5C 410.288,345.889 378.954,387.889 343,426.5C 318.167,452.667 292.667,478.167 266.5,503C 264.593,504.122 262.593,504.955 260.5,505.5C 258.833,505.5 257.167,505.5 255.5,505.5C 255.5,448.833 255.5,392.167 255.5,335.5C 267.505,335.667 279.505,335.5 291.5,335C 297.333,333.167 301.167,329.333 303,323.5C 303.5,302.503 303.667,281.503 303.5,260.5C 324.503,260.667 345.503,260.5 366.5,260C 372.74,258.092 376.573,253.925 378,247.5C 378.667,224.167 378.667,200.833 378,177.5C 375.728,170.894 371.228,166.727 364.5,165C 344.169,164.5 323.836,164.333 303.5,164.5C 303.667,143.497 303.5,122.497 303,101.5C 300.414,95.4077 295.914,91.741 289.5,90.5C 278.346,89.5052 267.012,89.1719 255.5,89.5C 255.5,61.1667 255.5,32.8333 255.5,4.5 Z"/></g>
<g><path style="opacity:1" fill="#ebeef0" d="M 255.5,90.5 C 255.5,172.167 255.5,253.833 255.5,335.5C 243.162,335.667 230.829,335.5 218.5,335C 213.243,332.744 209.743,328.91 208,323.5C 207.5,302.503 207.333,281.503 207.5,260.5C 186.164,260.667 164.831,260.5 143.5,260C 137.836,257.668 134.336,253.501 133,247.5C 132.333,224.167 132.333,200.833 133,177.5C 135.167,171.333 139.333,167.167 145.5,165C 166.164,164.5 186.831,164.333 207.5,164.5C 207.333,143.497 207.5,122.497 208,101.5C 210.114,97.052 213.281,93.552 217.5,91C 230.162,90.5001 242.829,90.3334 255.5,90.5 Z"/></g>
<g><path style="opacity:1" fill="#faf9f9" d="M 255.5,90.5 C 266.833,90.5 278.167,90.5 289.5,90.5C 295.914,91.741 300.414,95.4077 303,101.5C 303.5,122.497 303.667,143.497 303.5,164.5C 323.836,164.333 344.169,164.5 364.5,165C 371.228,166.727 375.728,170.894 378,177.5C 378.667,200.833 378.667,224.167 378,247.5C 376.573,253.925 372.74,258.092 366.5,260C 345.503,260.5 324.503,260.667 303.5,260.5C 303.667,281.503 303.5,302.503 303,323.5C 301.167,329.333 297.333,333.167 291.5,335C 279.505,335.5 267.505,335.667 255.5,335.5C 255.5,253.833 255.5,172.167 255.5,90.5 Z"/></g>
</svg>
